<svg width="40" height="40" viewBox="0 0 40 40" fill="none" xmlns="http://www.w3.org/2000/svg">
<path d="M35 26.6696V13.329C34.9995 12.8923 34.8846 12.4635 34.6668 12.085C34.449 11.7066 34.1359 11.3918 33.7586 11.1719L21.8836 4.26101C21.3115 3.92792 20.6613 3.75244 19.9992 3.75244C19.3372 3.75244 18.687 3.92792 18.1148 4.26101L6.24141 11.1719C5.86413 11.3918 5.55102 11.7066 5.33322 12.085C5.11542 12.4635 5.00053 12.8923 5 13.329V26.6696C5.00026 27.1065 5.11501 27.5357 5.33283 27.9145C5.55064 28.2932 5.86391 28.6082 6.24141 28.8282L18.1164 35.7391C18.6887 36.0718 19.3388 36.247 20.0008 36.247C20.6627 36.247 21.3129 36.0718 21.8852 35.7391L33.7602 28.8282C34.1374 28.608 34.4503 28.2929 34.6679 27.9142C34.8854 27.5355 34.9999 27.1064 35 26.6696Z" fill="#2E3B4A" stroke="#E7B1A7" stroke-width="1.5" stroke-linecap="round" stroke-linejoin="round"/>
<path d="M5.39062 12.0305L20 20.6243M20 20.6243L34.6094 12.0305M20 20.6243V36.2493" stroke="#E7B1A7" stroke-width="1.5" stroke-linecap="round" stroke-linejoin="round"/>
</svg>
