<svg width="40" height="40" viewBox="0 0 40 40" fill="none" xmlns="http://www.w3.org/2000/svg">
<path d="M17.9478 3.58438L2.93214 25.6086C2.73508 25.8969 2.60105 26.2236 2.5388 26.5672C2.47655 26.9109 2.48747 27.2638 2.57085 27.6029C2.65424 27.9421 2.80821 28.2598 3.02271 28.5354C3.23722 28.811 3.50744 29.0383 3.81573 29.2023L18.8282 37.2078C19.1879 37.3998 19.5893 37.5002 19.997 37.5002C20.4047 37.5002 20.8061 37.3998 21.1657 37.2078L36.1814 29.1992C36.4897 29.0351 36.7599 28.8079 36.9744 28.5323C37.1889 28.2567 37.3429 27.9389 37.4262 27.5998C37.5096 27.2607 37.5205 26.9077 37.4583 26.5641C37.396 26.2205 37.262 25.8938 37.065 25.6055L22.0525 3.58438C21.8245 3.2502 21.5184 2.97674 21.1607 2.78776C20.803 2.59878 20.4046 2.5 20.0001 2.5C19.5956 2.5 19.1972 2.59878 18.8395 2.78776C18.4818 2.97674 18.1757 3.2502 17.9478 3.58438ZM20.0001 2.5V37.5V2.5Z" fill="#2E3B4A"/>
<path d="M20.0001 2.5V37.5M17.9478 3.58438L2.93214 25.6086C2.73508 25.8969 2.60105 26.2236 2.5388 26.5672C2.47655 26.9109 2.48747 27.2638 2.57085 27.6029C2.65424 27.9421 2.80821 28.2598 3.02271 28.5354C3.23722 28.811 3.50744 29.0383 3.81573 29.2023L18.8282 37.2078C19.1879 37.3998 19.5893 37.5002 19.997 37.5002C20.4047 37.5002 20.8061 37.3998 21.1657 37.2078L36.1814 29.1992C36.4896 29.0351 36.7599 28.8079 36.9744 28.5323C37.1889 28.2567 37.3429 27.9389 37.4262 27.5998C37.5096 27.2607 37.5205 26.9077 37.4583 26.5641C37.396 26.2205 37.262 25.8938 37.065 25.6055L22.0525 3.58438C21.8245 3.2502 21.5184 2.97674 21.1607 2.78776C20.803 2.59878 20.4046 2.5 20.0001 2.5C19.5956 2.5 19.1972 2.59878 18.8395 2.78776C18.4818 2.97674 18.1757 3.2502 17.9478 3.58438Z" stroke="#E7B1A7" stroke-width="1.5" stroke-linecap="round" stroke-linejoin="round"/>
</svg>
