<svg width="40" height="40" viewBox="0 0 40 40" fill="none" xmlns="http://www.w3.org/2000/svg">
<path d="M19.1667 12.1429C20.3571 7.44346 24.8534 5.04391 34.6429 5.00001C34.7994 4.99942 34.9544 5.02981 35.0991 5.08943C35.2438 5.14904 35.3753 5.23671 35.486 5.34737C35.5966 5.45804 35.6843 5.58951 35.7439 5.73421C35.8035 5.87891 35.8339 6.03398 35.8333 6.19048V27.619C35.8333 27.9348 35.7079 28.2376 35.4846 28.4608C35.2614 28.6841 34.9586 28.8095 34.6429 28.8095C25.119 28.8095 21.4397 30.7299 19.1667 33.5714C16.907 30.744 13.2143 28.8095 3.69048 28.8095C2.95537 28.8095 2.50001 28.2106 2.50001 27.4754V6.19048C2.49942 6.03398 2.52981 5.87891 2.58943 5.73421C2.64904 5.58951 2.73671 5.45804 2.84737 5.34737C2.95804 5.23671 3.08951 5.14904 3.23421 5.08943C3.37891 5.02981 3.53398 4.99942 3.69048 5.00001C13.4799 5.04391 17.9762 7.44346 19.1667 12.1429ZM19.1667 12.1429V33.5714V12.1429Z" fill="#611016"/>
<path d="M19.1667 12.1429V33.5714M19.1667 12.1429C20.3571 7.44346 24.8534 5.04391 34.6429 5.00001C34.7994 4.99942 34.9544 5.02981 35.0991 5.08943C35.2438 5.14904 35.3753 5.23671 35.486 5.34737C35.5966 5.45804 35.6843 5.58951 35.7439 5.73421C35.8035 5.87891 35.8339 6.03398 35.8333 6.19048V27.619C35.8333 27.9348 35.7079 28.2376 35.4846 28.4608C35.2614 28.6841 34.9586 28.8095 34.6429 28.8095C25.119 28.8095 21.4397 30.7299 19.1667 33.5714C16.907 30.744 13.2143 28.8095 3.69048 28.8095C2.95537 28.8095 2.50001 28.2106 2.50001 27.4754V6.19048C2.49942 6.03398 2.52981 5.87891 2.58943 5.73421C2.64904 5.58951 2.73671 5.45804 2.84737 5.34737C2.95804 5.23671 3.08951 5.14904 3.23421 5.08943C3.37891 5.02981 3.53398 4.99942 3.69048 5.00001C13.4799 5.04391 17.9762 7.44346 19.1667 12.1429Z" stroke="#E7B1A7" stroke-width="1.5" stroke-linecap="round" stroke-linejoin="round"/>
</svg>
