<svg width="40" height="40" viewBox="0 0 40 40" fill="none" xmlns="http://www.w3.org/2000/svg">
<path d="M35 26.6695V13.3289C34.9995 12.8922 34.8846 12.4633 34.6668 12.0849C34.449 11.7064 34.1359 11.3916 33.7586 11.1718L21.8836 4.26089C21.3115 3.9278 20.6613 3.75232 19.9992 3.75232C19.3372 3.75232 18.687 3.9278 18.1148 4.26089L6.24141 11.1718C5.86413 11.3916 5.55102 11.7064 5.33322 12.0849C5.11542 12.4633 5.00053 12.8922 5 13.3289V26.6695C5.00026 27.1064 5.11501 27.5356 5.33283 27.9143C5.55064 28.2931 5.86391 28.6081 6.24141 28.8281L18.1164 35.739C18.6887 36.0716 19.3388 36.2468 20.0008 36.2468C20.6627 36.2468 21.3129 36.0716 21.8852 35.739L33.7602 28.8281C34.1374 28.6079 34.4503 28.2928 34.6679 27.9141C34.8854 27.5353 34.9999 27.1062 35 26.6695Z" fill="#611016" stroke="#E7B1A7" stroke-width="1.5" stroke-linecap="round" stroke-linejoin="round"/>
<path d="M5.39062 12.0305L20 20.6243M20 20.6243L34.6094 12.0305M20 20.6243V36.2493" stroke="#E7B1A7" stroke-width="1.5" stroke-linecap="round" stroke-linejoin="round"/>
</svg>
